<?xml version="1.0" standalone="no"?>
<!DOCTYPE svg PUBLIC "-//W3C//DTD SVG 1.0//EN" "http://www.w3.org/TR/2001/REC-SVG-20010904/DTD/svg10.dtd">
<svg xmlns="http://www.w3.org/2000/svg" xmlns:xlink="http://www.w3.org/1999/xlink" id="body_1" width="102" height="77">

<defs>
    <radialGradient cx="57.309742%" cy="100%" r="141.42136%" gradientUnits="objectBoundingBox" id="1">
        <stop offset="0%" stop-color="#FF0A31" stop-opacity="1"/>
        <stop offset="100%" stop-color="#C60200" stop-opacity="1"/>
    </radialGradient>
<mask id="260">
<path  transform="matrix(0.66292 0 0 1.5085 -141.49 -36.096)"   d="M986.14996 346.26C 986.14996 457.87067 941.7655 565.02423 862.84485 643.9449C 783.9242 722.86554 676.7706 767.25 565.16 767.25C 453.54932 767.25 346.39575 722.86554 267.4751 643.9449C 188.55444 565.02423 144.16998 457.87067 144.16998 346.26C 144.16998 234.64934 188.55444 127.4958 267.4751 48.575134C 346.39575 -30.345524 453.54932 -74.72998 565.16 -74.72998C 676.7706 -74.72998 783.9242 -30.345524 862.84485 48.575134C 941.7655 127.4958 986.14996 234.64934 986.14996 346.26z" fill="white"/>
</mask>
    <linearGradient transform="matrix(0.8892 0 0 1.1246 -141.49 -36.096)"  id="843" x1="643.23" y1="310.08" x2="681" y2="310.08">
        <stop stop-color="#FF0A31" offset="0%"/>
        <stop stop-color="#C60200" offset="100%"/>
    </linearGradient>
    <linearGradient transform="matrix(0.90597 0 0 1.1038 -141.49 -36.096)"  id="1095" x1="156.18" y1="313.28" x2="193.83" y2="313.28">
        <stop stop-color="#FF0A31" offset="0%"/>
        <stop stop-color="#C60200" offset="100%"/>
    </linearGradient>
    <radialGradient cx="82.9462%" cy="92.80653%" r="127.080574%" fx="83.064964%" fy="92.480415%" gradientUnits="objectBoundingBox" id="1352">
        <stop offset="0%" stop-color="#6B5635" stop-opacity="1"/>
        <stop offset="100%" stop-color="#FFFFFF" stop-opacity="1"/>
    </radialGradient>
<mask id="1650">
<path  transform="matrix(1.0195 0 0 0.98091 -141.49 -36.096)"   d="M648.36 113.83C 648.36 143.14374 636.70276 171.28685 615.9748 192.0148C 595.2468 212.74275 567.1037 224.4 537.79 224.4C 508.47623 224.4 480.33313 212.74275 459.6052 192.0148C 438.87726 171.28685 427.21997 143.14374 427.21997 113.83C 427.21997 84.51626 438.87726 56.37315 459.6052 35.645206C 480.33313 14.917262 508.47623 3.2600021 537.79 3.2600021C 567.1037 3.2600021 595.2468 14.917262 615.9748 35.645206C 636.70276 56.37315 648.36 84.51626 648.36 113.83z" fill="white"/>
</mask>
    <radialGradient cx="70.23949%" cy="93.753784%" r="127.08055%" fx="69.954544%" fy="94.84712%" gradientUnits="objectBoundingBox" id="2215">
        <stop offset="0%" stop-color="#6B5635" stop-opacity="1"/>
        <stop offset="100%" stop-color="#FFFFFF" stop-opacity="1"/>
    </radialGradient>
<mask id="2513">
<path  transform="matrix(0.98293 0 0 1.0174 -141.49 -36.096)"   d="M298.30798 106.33C 298.30798 129.86636 288.94824 152.46281 272.3055 169.10553C 255.6628 185.74825 233.06636 195.108 209.53 195.108C 185.99364 195.108 163.39719 185.74825 146.75447 169.10553C 130.11176 152.46281 120.752 129.86636 120.752 106.33C 120.752 82.79364 130.11176 60.197197 146.75447 43.554478C 163.39719 26.911758 185.99364 17.552002 209.53 17.552002C 233.06636 17.552002 255.6628 26.911758 272.3055 43.554478C 288.94824 60.197197 298.30798 82.79364 298.30798 106.33z" fill="white"/>
</mask>
</defs>

<g transform="matrix(0.07932176 0 0 0.07932176 32.595375 -0)">
    <path d="M231.35 2.0918C 406.96002 8.2497 460.21002 32.4018 440.76 290.4818C 437.71002 297.61182 434.65002 304.74182 431.6 311.86182C 435.2 430.96182 438.80002 550.7818 431.6 669.15186C 443.29 681.9219 437.71 699.01184 440.76 713.94183C 445.76 752.39185 447.88 806.6718 442.80002 859.51184C 434.30002 978.21185 310.63 967.3518 240.23001 969.44183C 161.78001 967.69183 55.970016 993.28186 26.470016 860.52185C 23.586016 799.32184 22.866016 750.3618 26.465017 683.40186C 29.179018 678.3118 31.894016 673.2319 34.608017 668.14185C 31.331017 550.4918 27.334017 435.00183 33.414017 310.88184C 29.815018 301.04184 26.216017 291.20184 22.617016 281.37183C 9.421016 27.041824 59.566017 10.971832 231.34702 2.0918274L231.34702 2.0918274L231.35 2.0918z" stroke="#000000" stroke-width="0.75" mask="url(#260)" fill="url(#1)"  />
    <path d="M431.6 98.096C 394.28 23.787003 309.11002 14.625999 228.01001 12.590004C 141.83002 16.323004 73.97002 18.019005 30.540009 109.29C 42.41201 74.684006 30.876009 4.4500046 229.03001 0.37000275C 408.87 3.7681026 419.72003 51.950005 431.60004 98.096L431.60004 98.096L431.6 98.096z" stroke="#000000" stroke-width="0.75" fill="#BF0000" fill-rule="nonzero" />
    <path d="M62.092 234.5C 142.51 143.22 322.682 135.42 401.062 235.52C 395.63202 283.02002 390.20203 330.52002 384.782 378.03C 310.812 361.4 194.08202 343.76 80.42203 383.12C 74.30903 333.58 68.20203 284.03998 62.09403 234.5L62.09403 234.5L62.092 234.5z" stroke="#000000" stroke-width="1.3333334" fill="#000000" fill-rule="nonzero" fill-opacity="0.827451" />
    <path d="M93.648 706.82C 192.73001 717.34 284.678 723.78 372.558 701.73L372.558 701.73L372.558 847.29C 285.35803 905.31 179.82802 902.26 95.67801 850.33997C 95.003006 802.49994 94.32501 754.66 93.64601 706.81995L93.64601 706.81995L93.648 706.82z" stroke="#000000" stroke-width="1.3333334" fill="#000000" fill-rule="nonzero" fill-opacity="0.827451" />
    <path d="M440.25 292.01C 463.49 302.7 467.4 327.64 460.1 333.24002C 451.96 332.39 439.74 320.85 431.6 318.99002C 431.43 316.61002 431.26 314.24002 431.09 311.86002C 434.48 305.41 436.86 298.46002 440.25 292.01z" stroke="#000000" stroke-width="1.3333334" fill="url(#843)" />
    <path d="M25.21 289.54C 1.5189991 299.2 -3.4760017 323.94 3.5649986 329.85C 11.737999 329.36002 24.449 318.38 32.667 316.87C 32.940998 314.5 33.215 312.13998 33.489 309.77C 30.383 303.18 28.315998 296.12997 25.21 289.53998L25.21 289.53998L25.21 289.54z" stroke="#000000" stroke-width="1.3333334" fill="url(#1095)" />
    <path d="M381.72 45.164C 356.78 51.271 360.85 64.504 384.78 84.86301C 404.29 98.94401 416.16 101.32001 417.35 79.77301C 415.65 67.21901 386.98 46.52101 381.72 45.16401L381.72 45.16401L381.72 45.164z" stroke="none" mask="url(#1650)" fill="url(#1352)"  />
    <path d="M83.154 44.172C 108.5 48.248 105.51 61.766 83.311 83.98801C 65 99.59601 53.353996 102.920006 50.433 81.54101C 51.112 68.89101 78.020996 45.94801 83.154 44.17201L83.154 44.17201L83.154 44.172z" stroke="#000000" stroke-width="1.3333334" mask="url(#2513)" fill="url(#2215)"  />
    <path d="M49.877 270.13C 40.716 417.39 42.752 553.45 47.841 695.62C 51.913 720.73 54.967 746.86 59.038 771.95996C 71.423 710.04 79.227 579.41 73.289 456.40997C 68.03 390.24 59.717003 332.72998 49.877 270.12997L49.877 270.12997L49.877 270.13z" stroke="#000000" stroke-width="1.3333334" fill="#000000" fill-rule="nonzero" fill-opacity="0.827451" />
    <path d="M417.24 258.62C 426.4 405.88 424.37 541.94 419.28 684.11C 415.2 709.22 412.15 735.35 408.08 760.45996C 395.68997 698.52997 387.88998 567.89996 393.83 444.89996C 399.09 378.73996 407.4 321.21997 417.24 258.61996L417.24 258.61996L417.24 258.62z" stroke="#000000" stroke-width="1.3333334" fill="#000000" fill-rule="nonzero" fill-opacity="0.827451" />
    <path d="M193.21 897.5L275.98 896.78L273.82 905.42004L197.52 906.14L193.21 897.5z" stroke="#000000" stroke-width="1.3333334" fill="#000000" fill-rule="nonzero" fill-opacity="0.5803922" />
    <path transform="matrix(1 0 0 1 -142.93 -44.013)"  d="M395.16 965.63C 395.1659 968.8465 391.9432 971.82007 386.70728 973.4292C 381.4713 975.0384 375.01868 975.0384 369.7827 973.4292C 364.54678 971.82007 361.3241 968.8465 361.33002 965.63C 361.33002 962.4156 364.554 959.4453 369.78754 957.83813C 375.02106 956.2309 381.46902 956.2309 386.70255 957.83813C 391.93607 959.4453 395.16003 962.4156 395.16003 965.63L395.16003 965.63L395.16 965.63z" stroke="#000000" stroke-width="1.3333334" fill="#29007D" fill-rule="nonzero" />
    <path d="M354.44 918.38C 359.96 908.3 403.62 890.3 412.02002 896.78C 418.02002 914.78 386.59003 933.49005 373.87003 937.81006C 363.07004 937.81006 353.72003 929.17004 354.44003 918.38007L354.44003 918.38007L354.44 918.38z" stroke="#000000" stroke-width="1.3333334" fill="#FF0000" fill-rule="nonzero" fill-opacity="0.7176471" />
    <path d="M118 920.24C 112.48 910.16 68.817 892.17 60.42 898.64996C 54.420998 916.63995 85.852 935.36 98.56799 939.67C 109.35999 939.67 118.71999 931.04 117.99999 920.24L117.99999 920.24L118 920.24z" stroke="#000000" stroke-width="1.3333334" fill="#FF0000" fill-rule="nonzero" fill-opacity="0.7176471" />
    <path d="M382.51 380.7C 370.99002 488.67 370.27002 595.19 371.71002 697.4" stroke="#000000" stroke-width="3.5" fill="none" stroke-opacity="0.6431373" />
    <path d="M80.92 384.3C 90.756996 502.09998 94.116 601.91 94.596 703.16" stroke="#000000" stroke-width="2.75" fill="none" stroke-opacity="0.65882355" />
    <path d="M222.3 686.63C 221.84 685.62 222.54001 688.85 222.74 689.94C 223.14 692.12 223.63 694.27 224.18001 696.41C 225.82 702.76996 227.99 708.93 230.32 715.05C 230.89001 716.49 231.47 717.93 232.05 719.36L232.05 719.36L231.22 719.51996C 230.62 718.07996 230.02 716.64996 229.43001 715.22C 225.75002 706.18994 220.70001 696.29 218.81001 686.62994L218.81001 686.62994L222.30002 686.62994L222.3 686.63z" stroke="none" fill="#000000" fill-rule="nonzero" fill-opacity="0.7490196" />
    <path d="M169.45 937.09C 169.09 942.73004 167.29 947.65 165.12999 952.93005C 212.76 955.56006 264.34 956.04004 313.40997 950.05005C 310.40997 946.21 308.48996 940.93005 307.64996 934.21C 263.73996 938.77 216.23996 939.01 169.44997 937.09L169.44997 937.09L169.45 937.09z" stroke="#000000" stroke-width="1.3333334" fill="#E1BD23" fill-rule="nonzero" />
    <path transform="matrix(1 0 0 0.86614 -142.6 -33.28)"  d="M393.72 74.536C 393.72 78.522224 390.15295 82.20565 384.3625 84.19876C 378.57205 86.19187 371.43796 86.19187 365.6475 84.19876C 359.85706 82.20565 356.29 78.522224 356.29 74.536C 356.29 70.54978 359.85706 66.866356 365.64752 64.873245C 371.43796 62.880135 378.57205 62.880135 384.36252 64.873245C 390.15295 66.866356 393.72 70.54978 393.72 74.536z" stroke="#000000" stroke-width="0.5" fill="#0A007D" fill-rule="nonzero" />
    <path transform="matrix(1.354 0 -0 -0.73854 0 0)"  d="M165.31 -48.445L167.17 -48.445L168.52 -37.017998L170.12001 -44.579L172.11002 -44.579L173.73001 -36.999L175.08002 -48.445L176.94002 -48.445L174.83002 -34.368L173.03001 -34.368L171.12001 -42.731L169.22002 -34.368L167.41002 -34.368L165.31001 -48.445L165.31 -48.445z" stroke="none" fill="#FFFFFF" fill-rule="nonzero" />
    <path d="M61.583 229.32C 67.691 92.44 125.71 27.75 231.073 20.800003C 362.043 24.717003 393.263 108.3 401.063 229.86" stroke="#000000" stroke-width="2.4343" fill="none" stroke-opacity="0.46666667" />
    <path transform="matrix(1.3386 0 0 0.74706 0 0)"  d="M150.49 1269.6L150.49 1270.5L145.44 1270.5C 145.44 1270.3 145.47 1270.1 145.55 1269.8C 145.68001 1269.5 145.89 1269.2001 146.17 1268.8C 146.45 1268.5 146.86 1268.1001 147.4 1267.7001C 148.23 1267.0001 148.79 1266.5001 149.07999 1266.1001C 149.36998 1265.7001 149.50998 1265.3 149.50998 1264.9001C 149.50998 1264.6001 149.37997 1264.2002 149.11998 1264.0001C 148.84998 1263.7001 148.49998 1263.6001 148.07999 1263.6001C 147.62999 1263.6001 147.26999 1263.7001 146.99998 1264.0001C 146.71999 1264.3002 146.58998 1264.7001 146.57999 1265.1001L146.57999 1265.1001L145.61998 1265.0001C 145.68999 1264.3002 145.93999 1263.8002 146.36998 1263.4001C 146.79997 1263.0001 147.36998 1262.8002 148.09998 1262.8002C 148.82997 1262.8002 149.40997 1263.0001 149.83998 1263.4001C 150.25998 1263.9001 150.47998 1264.4001 150.47998 1265.0001C 150.47998 1265.3002 150.40997 1265.6001 150.28998 1265.9001C 150.15997 1266.2002 149.95998 1266.5001 149.66998 1266.8002C 149.37999 1267.1002 148.89998 1267.6002 148.21999 1268.1002C 147.65999 1268.6002 147.29999 1268.9003 147.13998 1269.1002C 146.97998 1269.3002 146.84999 1269.4003 146.74998 1269.6002L146.74998 1269.6002L150.48999 1269.6002L150.49 1269.6zM151.64 1268.7L152.54 1268.6C 152.61 1269.1 152.76 1269.4 152.98 1269.6C 153.19 1269.7999 153.47 1269.9 153.8 1269.9C 154.09 1269.9 154.34 1269.8 154.56 1269.7001C 154.78 1269.5001 154.95 1269.4 155.09 1269.1001C 155.23 1268.9001 155.34999 1268.6001 155.44 1268.2001C 155.54001 1267.9 155.58 1267.5001 155.58 1267.1001L155.58 1267.1001L155.58 1266.9001C 155.39 1267.2002 155.13 1267.4001 154.81 1267.6001C 154.48999 1267.8 154.13 1267.9001 153.76 1267.9001C 153.12 1267.9001 152.59 1267.7002 152.15 1267.2002C 151.72 1266.8002 151.5 1266.2002 151.5 1265.4001C 151.5 1264.6001 151.73 1264.0001 152.18 1263.5001C 152.64 1263.1001 153.20999 1262.8002 153.9 1262.8002C 154.39 1262.8002 154.84999 1263.0001 155.26 1263.2002C 155.67 1263.5002 155.98 1263.9001 156.18999 1264.4001C 156.40999 1264.9001 156.51 1265.6001 156.51 1266.5001C 156.51 1267.5001 156.40999 1268.3002 156.2 1268.9001C 155.98 1269.4001 155.67 1269.9001 155.25 1270.2002C 154.83 1270.5002 154.34 1270.6002 153.78 1270.6002C 153.18 1270.6002 152.7 1270.5002 152.31999 1270.1002C 151.93999 1269.8002 151.70999 1269.3002 151.64 1268.7002zM155.47 1265.3999C 155.47 1264.7999 155.33 1264.3999 155.04001 1264.0999C 154.76001 1263.7998 154.41 1263.5999 154.01001 1263.5999C 153.59001 1263.5999 153.23001 1263.7998 152.92001 1264.0999C 152.61002 1264.4999 152.46 1264.8999 152.46 1265.3999C 152.46 1265.8999 152.61 1266.2999 152.90001 1266.5999C 153.19002 1266.8998 153.55 1267.0999 153.98001 1267.0999C 154.42001 1267.0999 154.77 1266.8999 155.05002 1266.5999C 155.33003 1266.2998 155.47002 1265.8999 155.47002 1265.3999zM157.44 1268.4999L158.37 1268.3999C 158.48 1268.8999 158.65999 1269.2999 158.92 1269.4999C 159.18001 1269.6998 159.49 1269.8999 159.87 1269.8999C 160.31 1269.8999 160.68 1269.7 160.98 1269.3999C 161.29 1269.0999 161.44 1268.7 161.44 1268.2999C 161.44 1267.7999 161.3 1267.4999 161.02 1267.2C 160.73001 1266.8999 160.38 1266.7999 159.94 1266.7999C 159.77 1266.7999 159.55 1266.7999 159.28 1266.8999L159.28 1266.8999L159.39 1266.0999L159.54 1266.0999C 159.93999 1266.0999 160.29999 1265.9999 160.61 1265.7998C 160.93001 1265.5999 161.09 1265.1998 161.09 1264.7998C 161.09 1264.4998 160.98 1264.1998 160.73999 1263.8998C 160.51 1263.6998 160.20999 1263.5997 159.84 1263.5997C 159.48 1263.5997 159.18 1263.6997 158.93 1263.9998C 158.68999 1264.1997 158.53 1264.4998 158.46999 1264.9998L158.46999 1264.9998L157.52998 1264.7998C 157.63998 1264.1998 157.89998 1263.6998 158.30998 1263.3998C 158.71999 1262.9998 159.21999 1262.7998 159.81998 1262.7998C 160.23997 1262.7998 160.61998 1262.8998 160.96997 1263.0999C 161.31996 1263.2999 161.58997 1263.4999 161.77997 1263.7998C 161.95996 1264.0999 162.05997 1264.4998 162.05997 1264.7998C 162.05997 1265.0999 161.96997 1265.3998 161.78996 1265.6998C 161.60995 1265.9999 161.34996 1266.1998 161.00996 1266.3998C 161.45996 1266.4998 161.80997 1266.6998 162.05997 1266.9998C 162.30997 1267.2997 162.42996 1267.7998 162.42996 1268.1997C 162.42996 1268.8997 162.18996 1269.4998 161.69997 1269.8997C 161.21997 1270.3997 160.59996 1270.5996 159.85997 1270.5996C 159.18997 1270.5996 158.62997 1270.3997 158.18997 1269.9996C 157.74997 1269.5996 157.49997 1269.0996 157.43997 1268.4996zM163.5 1268.6998L164.4 1268.5999C 164.48 1269.0999 164.62999 1269.3999 164.84 1269.5999C 165.06 1269.7998 165.33 1269.8999 165.67 1269.8999C 165.95999 1269.8999 166.20999 1269.7999 166.43 1269.7C 166.64 1269.5 166.81999 1269.3999 166.95999 1269.1C 167.09999 1268.9 167.20999 1268.6 167.31 1268.2C 167.4 1267.8999 167.45 1267.5 167.45 1267.1C 167.45 1267.1 167.45 1267 167.44 1266.9C 167.26001 1267.2001 167 1267.4 166.68001 1267.6C 166.35 1267.7999 166.00002 1267.9 165.62001 1267.9C 164.99 1267.9 164.46 1267.7001 164.02 1267.2001C 163.58 1266.8 163.36 1266.2001 163.36 1265.4C 163.36 1264.6 163.59 1264 164.05 1263.5C 164.5 1263.1 165.07 1262.8 165.76001 1262.8C 166.26001 1262.8 166.71 1263 167.12001 1263.2001C 167.53001 1263.5001 167.85 1263.9 168.06001 1264.4C 168.27002 1264.9 168.38002 1265.6 168.38002 1266.5C 168.38002 1267.5 168.27002 1268.3 168.06001 1268.9C 167.85 1269.4 167.54001 1269.9 167.12001 1270.2001C 166.70001 1270.5001 166.21 1270.6001 165.65001 1270.6001C 165.05 1270.6001 164.56001 1270.5001 164.19 1270.1001C 163.81 1269.8 163.58 1269.3 163.5 1268.7001zM167.34 1265.3998C 167.34 1264.7998 167.2 1264.3998 166.91 1264.0997C 166.62001 1263.7997 166.28 1263.5997 165.88 1263.5997C 165.46 1263.5997 165.1 1263.7997 164.79001 1264.0997C 164.48001 1264.4998 164.33 1264.8998 164.33 1265.3998C 164.33 1265.8998 164.47 1266.2998 164.77 1266.5997C 165.06 1266.8998 165.42 1267.0997 165.85 1267.0997C 166.28001 1267.0997 166.64 1266.8998 166.92001 1266.5997C 167.20003 1266.2997 167.34001 1265.8998 167.34001 1265.3998zM169.3 1268.4998L170.24 1268.3998C 170.35 1268.8998 170.53 1269.2998 170.79001 1269.4998C 171.05002 1269.6997 171.36002 1269.8998 171.73001 1269.8998C 172.17001 1269.8998 172.54001 1269.6998 172.85 1269.3998C 173.15001 1269.0997 173.3 1268.6998 173.3 1268.2998C 173.3 1267.7998 173.16 1267.4998 172.88 1267.1998C 172.6 1266.8999 172.24 1266.7998 171.81 1266.7998C 171.63 1266.7998 171.41 1266.7998 171.15 1266.8998L171.15 1266.8998L171.25 1266.0997L171.4 1266.0997C 171.79999 1266.0997 172.15999 1265.9998 172.48 1265.7997C 172.8 1265.5996 172.95999 1265.1997 172.95999 1264.7997C 172.95999 1264.4996 172.84 1264.1997 172.60999 1263.8997C 172.37999 1263.6997 172.07999 1263.5996 171.70999 1263.5996C 171.34999 1263.5996 171.04 1263.6996 170.79999 1263.9996C 170.55998 1264.1996 170.4 1264.4996 170.32999 1264.9996L170.32999 1264.9996L169.38998 1264.7997C 169.50998 1264.1997 169.76999 1263.6997 170.17998 1263.3997C 170.57997 1262.9996 171.08998 1262.7997 171.68997 1262.7997C 172.10997 1262.7997 172.48997 1262.8997 172.83997 1263.0997C 173.18996 1263.2998 173.45996 1263.4998 173.63997 1263.7997C 173.82997 1264.0997 173.91997 1264.4996 173.91997 1264.7997C 173.91997 1265.0997 173.82997 1265.3997 173.65997 1265.6997C 173.47998 1265.9998 173.21997 1266.1997 172.86998 1266.3997C 173.31998 1266.4996 173.66998 1266.6997 173.91998 1266.9996C 174.16998 1267.2996 174.29999 1267.7997 174.29999 1268.1996C 174.29999 1268.8995 174.04999 1269.4996 173.56999 1269.8995C 173.07999 1270.3995 172.46999 1270.5995 171.73 1270.5995C 171.06 1270.5995 170.5 1270.3995 170.06 1269.9995C 169.62 1269.5995 169.36 1269.0995 169.3 1268.4995zM177.73001 1270.4998L180.66 1262.8998L181.74 1262.8998L184.87001 1270.4998L183.72002 1270.4998L182.83002 1268.1997L179.64001 1268.1997L178.80002 1270.4998L177.73001 1270.4998zM179.93001 1267.3998L182.51001 1267.3998L181.72002 1265.2998C 181.48001 1264.5999 181.29002 1264.0999 181.18002 1263.6998C 181.08002 1264.1998 180.94002 1264.5999 180.77002 1265.0999L180.77002 1265.0999L179.93002 1267.3999zM185.64001 1270.4998L185.64001 1262.8998L188.50002 1262.8998C 189.09001 1262.8998 189.56001 1262.8998 189.91002 1263.0997C 190.26003 1263.2997 190.54002 1263.4998 190.73003 1263.7997C 190.93002 1264.0997 191.03003 1264.4996 191.03003 1264.7997C 191.03003 1265.0997 190.95003 1265.4996 190.77003 1265.6997C 190.59004 1265.9998 190.32004 1266.2997 189.97003 1266.3997C 190.43004 1266.5996 190.78003 1266.7997 191.03003 1267.0996C 191.28003 1267.4996 191.40002 1267.7996 191.40002 1268.2996C 191.40002 1268.5996 191.33002 1268.9995 191.18002 1269.2996C 191.03003 1269.5996 190.84003 1269.7996 190.62003 1269.9995C 190.40002 1270.1995 190.12003 1270.2996 189.78003 1270.3995C 189.45003 1270.4995 189.04002 1270.4995 188.55003 1270.4995L188.55003 1270.4995L185.64003 1270.4995zM186.65001 1266.0997L188.3 1266.0997C 188.75 1266.0997 189.07 1265.9998 189.26001 1265.9998C 189.52 1265.8998 189.71 1265.7998 189.84001 1265.5997C 189.97002 1265.3997 190.04001 1265.1997 190.04001 1264.8998C 190.04001 1264.6998 189.98001 1264.4998 189.86002 1264.2998C 189.74002 1264.0999 189.56001 1263.8998 189.34001 1263.8998C 189.11002 1263.7998 188.72002 1263.7998 188.18001 1263.7998L188.18001 1263.7998L186.65001 1263.7998L186.65001 1266.0999zM186.65001 1269.5997L189.24 1269.5997C 189.47 1269.4998 189.67 1269.3998 189.82 1269.3998C 189.98001 1269.2998 190.11 1269.0997 190.21 1268.8998C 190.31001 1268.6998 190.36 1268.4998 190.36 1268.2998C 190.36 1267.9998 190.28 1267.7998 190.14 1267.4998C 189.99 1267.2998 189.79 1267.1997 189.53 1267.0997C 189.27 1266.9998 188.9 1266.9998 188.42 1266.9998L188.42 1266.9998L186.65 1266.9998L186.65 1269.5997zM200.24 1264.6997L199.31001 1264.7997C 199.23001 1264.3997 199.11002 1264.1997 198.95001 1263.9996C 198.70001 1263.6996 198.39001 1263.5996 198.02002 1263.5996C 197.72002 1263.5996 197.46002 1263.6996 197.23003 1263.8997C 196.94003 1264.0996 196.70003 1264.3997 196.53003 1264.7997C 196.36003 1265.1997 196.28003 1265.7997 196.27003 1266.5997C 196.49004 1266.1997 196.77003 1265.9998 197.10004 1265.7997C 197.42004 1265.5997 197.76004 1265.4996 198.12004 1265.4996C 198.75005 1265.4996 199.28004 1265.7997 199.72005 1266.1996C 200.16005 1266.6996 200.38005 1267.2996 200.38005 1267.9996C 200.38005 1268.4996 200.27005 1268.8997 200.07005 1269.3997C 199.86005 1269.7997 199.58005 1270.0996 199.22005 1270.2997C 198.85005 1270.4996 198.44005 1270.5997 197.99005 1270.5997C 197.21005 1270.5997 196.57005 1270.2997 196.08005 1269.7997C 195.58005 1269.1997 195.34004 1268.1997 195.34004 1266.8997C 195.34004 1265.4996 195.61005 1264.3997 196.15004 1263.6997C 196.63004 1263.0997 197.27003 1262.7997 198.08003 1262.7997C 198.68004 1262.7997 199.17003 1262.9996 199.55003 1263.2997C 199.93004 1263.6997 200.16003 1264.0997 200.24004 1264.6997zM196.42 1267.9998C 196.42 1268.2998 196.48 1268.6997 196.62 1268.9998C 196.76 1269.1997 196.95 1269.4998 197.2 1269.5997C 197.44 1269.7997 197.7 1269.8998 197.97 1269.8998C 198.37 1269.8998 198.71 1269.6998 198.99 1269.3998C 199.28 1269.0997 199.42 1268.5997 199.42 1268.0997C 199.42 1267.5997 199.28 1267.0997 199 1266.7997C 198.72 1266.4996 198.36 1266.3997 197.93 1266.3997C 197.51 1266.3997 197.15 1266.4996 196.85999 1266.7997C 196.55998 1267.0997 196.41998 1267.4996 196.41998 1267.9996zM206.23999 1269.5997L206.23999 1270.4998L201.18999 1270.4998C 201.18999 1270.2998 201.21999 1270.0997 201.29999 1269.7998C 201.43 1269.4998 201.63998 1269.1998 201.91998 1268.7998C 202.19998 1268.4998 202.60999 1268.0999 203.13998 1267.6998C 203.96999 1266.9999 204.52998 1266.4999 204.82999 1266.0999C 205.11998 1265.6998 205.25998 1265.2998 205.25998 1264.8999C 205.25998 1264.5999 205.12997 1264.2 204.85999 1263.9999C 204.59999 1263.6998 204.24998 1263.5999 203.82999 1263.5999C 203.36998 1263.5999 203.00998 1263.6998 202.73999 1263.9999C 202.47 1264.2999 202.34 1264.6998 202.32999 1265.0999L202.32999 1265.0999L201.36998 1264.9999C 201.43999 1264.2999 201.67998 1263.7999 202.10999 1263.3999C 202.54 1262.9999 203.11998 1262.7999 203.84999 1262.7999C 204.58 1262.7999 205.15999 1262.9999 205.59 1263.3999C 206.01 1263.8999 206.23 1264.3999 206.23 1264.9999C 206.23 1265.2999 206.15999 1265.5999 206.04 1265.8999C 205.90999 1266.2 205.70999 1266.4999 205.42 1266.7999C 205.13 1267.1 204.64 1267.6 203.97 1268.1C 203.41 1268.6 203.05 1268.9 202.89 1269.1C 202.73 1269.2999 202.6 1269.4 202.49 1269.6L202.49 1269.6L206.24 1269.6z" stroke="none" fill="#000000" fill-rule="nonzero" />
    <path d="M406.98 762.9C 402.18002 875.19 338.36002 944.29004 237.11002 935.65C 150.26001 938.53 67.72002 885.27 58.610016 775.86005" stroke="#000000" stroke-width="1.625" fill="none" stroke-opacity="0.52156866" />
</g>
</svg>