<svg xmlns="http://www.w3.org/2000/svg" width="50" height="50" stroke="none" stroke-linecap="round" stroke-linejoin="round" fill="#fff" fill-rule="evenodd"><g fill="#08d8fd" fill-rule="nonzero"><path d="M0 25C0 11.15 11.15 0 25 0s25 11.15 25 25-11.15 25-25 25S0 38.85 0 25z"/><path d="M25 0v49.8047c11.8579 0 21.4706-11.1491 21.4706-24.9023S36.8579 0 25 0z"/></g><path d="M25 38.3928c-7.3849 0-13.3929-6.008-13.3929-13.3928S17.6151 11.6071 25 11.6071 38.3929 17.6151 38.3929 25 32.3849 38.3928 25 38.3928zm0-21.4286c-4.4309 0-8.0358 3.6048-8.0358 8.0358S20.569 33.0357 25 33.0357 33.0357 29.4309 33.0357 25 29.431 16.9642 25 16.9642z" fill-rule="nonzero"/><path d="M25 11.6071v5.3571c4.4311 0 8.0357 3.6048 8.0357 8.0358S29.4311 33.0357 25 33.0357v5.3571c7.3849 0 13.3929-6.008 13.3929-13.3928S32.3849 11.6071 25 11.6071z" fill-rule="nonzero"/></svg>