<svg xmlns="http://www.w3.org/2000/svg" width="50" height="50" stroke="none" stroke-linecap="round" stroke-linejoin="round" fill="#fff" fill-rule="evenodd"><g fill="#d32e2e" fill-rule="nonzero"><path d="M-.5 24.25C-.5 10.2615 10.65-1 24.5-1s25 11.2615 25 25.25-11.15 25.25-25 25.25-25-11.2615-25-25.25z"/><path d="M24.5-1v50.5c13.8071 0 25-11.3048 25-25.25S38.3071-1 24.5-1z"/></g><path d="M24.5 37.7768c-7.3849 0-13.3929-6.0681-13.3929-13.5268S17.1151 10.7232 24.5 10.7232 37.8929 16.7913 37.8929 24.25 31.8849 37.7768 24.5 37.7768zm0-21.6429c-4.4309 0-8.0358 3.6408-8.0358 8.1161s3.6048 8.1161 8.0358 8.1161 8.0357-3.6409 8.0357-8.1161-3.6047-8.1161-8.0357-8.1161z" fill-rule="nonzero"/><path d="M24.5 10.7232v5.4107c4.4311 0 8.0357 3.6408 8.0357 8.1161s-3.6046 8.1161-8.0357 8.1161v5.4107c7.3849 0 13.3929-6.0681 13.3929-13.5268S31.8849 10.7232 24.5 10.7232z" fill-rule="nonzero"/></svg>